<svg width="18" height="16" viewBox="0 0 18 16" fill="none" xmlns="http://www.w3.org/2000/svg">
<path fill-rule="evenodd" clip-rule="evenodd" d="M16.9943 0.852345L0.65391 8.2296C-0.0191465 8.53078 0.00756896 8.97734 0.715097 9.21769L2.7989 9.92759C3.50212 10.165 4.56902 10.0352 5.16882 9.63236L14.2305 3.48353C14.826 3.07776 14.8907 3.13859 14.3719 3.61631L7.20868 10.2176C6.68902 10.6924 6.845 11.2747 7.55081 11.5128L7.79469 11.5929C8.50136 11.8288 9.65529 12.2227 10.3559 12.472L12.6716 13.2806C13.3756 13.5268 13.9479 13.7323 13.9513 13.7353C13.9513 13.7383 13.9548 13.7494 13.9582 13.7494C13.9608 13.7523 14.1263 13.2368 14.3245 12.6077L17.8526 1.44579C18.0517 0.81748 17.6639 0.55043 16.9943 0.852345Z" fill="white"/>
<path fill-rule="evenodd" clip-rule="evenodd" d="M7.72783 12.3002L6.35589 11.6761C5.75271 11.4043 5.46369 11.7236 5.71501 12.3894C5.71501 12.3894 6.98864 15.7929 6.9539 15.9149C6.9162 16.0329 8.17799 13.893 8.17799 13.893C8.53354 13.2919 8.33101 12.5721 7.72783 12.3002Z" fill="white"/>
</svg>
